<svg width="183" height="43" viewBox="0 0 183 43" fill="none" xmlns="http://www.w3.org/2000/svg">
<path d="M75.2705 16.325C75.7196 15.5417 76.385 14.8917 77.2665 14.375C78.1648 13.8417 79.2044 13.575 80.3854 13.575C81.5996 13.575 82.6975 13.8667 83.6788 14.45C84.6769 15.0333 85.4586 15.8583 86.0242 16.925C86.5897 17.975 86.8725 19.2 86.8725 20.6C86.8725 21.9833 86.5897 23.2167 86.0242 24.3C85.4586 25.3833 84.6769 26.225 83.6788 26.825C82.6975 27.425 81.5996 27.725 80.3854 27.725C79.221 27.725 78.1897 27.4667 77.2915 26.95C76.4099 26.4167 75.7362 25.7583 75.2705 24.975V34H73V13.8H75.2705V16.325ZM84.5521 20.6C84.5521 19.5667 84.3442 18.6667 83.9283 17.9C83.5125 17.1333 82.947 16.55 82.2317 16.15C81.5331 15.75 80.7596 15.55 79.9113 15.55C79.0796 15.55 78.3062 15.7583 77.5909 16.175C76.8923 16.575 76.3267 17.1667 75.8943 17.95C75.4784 18.7167 75.2705 19.6083 75.2705 20.625C75.2705 21.6583 75.4784 22.5667 75.8943 23.35C76.3267 24.1167 76.8923 24.7083 77.5909 25.125C78.3062 25.525 79.0796 25.725 79.9113 25.725C80.7596 25.725 81.5331 25.525 82.2317 25.125C82.947 24.7083 83.5125 24.1167 83.9283 23.35C84.3442 22.5667 84.5521 21.65 84.5521 20.6Z" fill="#CCCCCC"/>
<path d="M102.336 20.125C102.336 20.5583 102.311 21.0167 102.262 21.5H91.3332C91.4164 22.85 91.8738 23.9083 92.7055 24.675C93.5538 25.425 94.5768 25.8 95.7744 25.8C96.7558 25.8 97.5708 25.575 98.2196 25.125C98.8849 24.6583 99.3506 24.0417 99.6168 23.275H102.062C101.696 24.5917 100.964 25.6667 99.8663 26.5C98.7685 27.3167 97.4045 27.725 95.7744 27.725C94.477 27.725 93.3126 27.4333 92.2813 26.85C91.2667 26.2667 90.4683 25.4417 89.8861 24.375C89.3039 23.2917 89.0128 22.0417 89.0128 20.625C89.0128 19.2083 89.2956 17.9667 89.8611 16.9C90.4267 15.8333 91.2168 15.0167 92.2314 14.45C93.2627 13.8667 94.4437 13.575 95.7744 13.575C97.0718 13.575 98.2196 13.8583 99.2176 14.425C100.216 14.9917 100.981 15.775 101.513 16.775C102.062 17.7583 102.336 18.875 102.336 20.125ZM99.991 19.65C99.991 18.7833 99.7998 18.0417 99.4172 17.425C99.0346 16.7917 98.5106 16.3167 97.8453 16C97.1966 15.6667 96.473 15.5 95.6746 15.5C94.5269 15.5 93.5455 15.8667 92.7304 16.6C91.932 17.3333 91.4746 18.35 91.3582 19.65H99.991Z" fill="#CCCCCC"/>
<path d="M107.604 16.025C108.003 15.2417 108.569 14.6333 109.301 14.2C110.049 13.7667 110.956 13.55 112.02 13.55V15.9H111.421C108.876 15.9 107.604 17.2833 107.604 20.05V27.5H105.333V13.8H107.604V16.025Z" fill="#CCCCCC"/>
<path d="M113.793 20.6C113.793 19.2 114.076 17.975 114.641 16.925C115.207 15.8583 115.98 15.0333 116.962 14.45C117.96 13.8667 119.066 13.575 120.28 13.575C121.478 13.575 122.517 13.8333 123.399 14.35C124.28 14.8667 124.937 15.5167 125.37 16.3V13.8H127.665V27.5H125.37V24.95C124.921 25.75 124.247 26.4167 123.349 26.95C122.467 27.4667 121.436 27.725 120.255 27.725C119.041 27.725 117.943 27.425 116.962 26.825C115.98 26.225 115.207 25.3833 114.641 24.3C114.076 23.2167 113.793 21.9833 113.793 20.6ZM125.37 20.625C125.37 19.5917 125.162 18.6917 124.746 17.925C124.33 17.1583 123.765 16.575 123.049 16.175C122.351 15.7583 121.577 15.55 120.729 15.55C119.881 15.55 119.107 15.75 118.409 16.15C117.71 16.55 117.153 17.1333 116.737 17.9C116.321 18.6667 116.113 19.5667 116.113 20.6C116.113 21.65 116.321 22.5667 116.737 23.35C117.153 24.1167 117.71 24.7083 118.409 25.125C119.107 25.525 119.881 25.725 120.729 25.725C121.577 25.725 122.351 25.525 123.049 25.125C123.765 24.7083 124.33 24.1167 124.746 23.35C125.162 22.5667 125.37 21.6583 125.37 20.625Z" fill="#CCCCCC"/>
<path d="M133.773 9V27.5H131.502V9H133.773Z" fill="#CCCCCC"/>
<path d="M150.118 20.125C150.118 20.5583 150.093 21.0167 150.043 21.5H139.115C139.198 22.85 139.655 23.9083 140.487 24.675C141.335 25.425 142.358 25.8 143.556 25.8C144.537 25.8 145.352 25.575 146.001 25.125C146.666 24.6583 147.132 24.0417 147.398 23.275H149.843C149.477 24.5917 148.745 25.6667 147.648 26.5C146.55 27.3167 145.186 27.725 143.556 27.725C142.258 27.725 141.094 27.4333 140.063 26.85C139.048 26.2667 138.25 25.4417 137.667 24.375C137.085 23.2917 136.794 22.0417 136.794 20.625C136.794 19.2083 137.077 17.9667 137.642 16.9C138.208 15.8333 138.998 15.0167 140.013 14.45C141.044 13.8667 142.225 13.575 143.556 13.575C144.853 13.575 146.001 13.8583 146.999 14.425C147.997 14.9917 148.762 15.775 149.294 16.775C149.843 17.7583 150.118 18.875 150.118 20.125ZM147.772 19.65C147.772 18.7833 147.581 18.0417 147.198 17.425C146.816 16.7917 146.292 16.3167 145.627 16C144.978 15.6667 144.254 15.5 143.456 15.5C142.308 15.5 141.327 15.8667 140.512 16.6C139.713 17.3333 139.256 18.35 139.139 19.65H147.772Z" fill="#CCCCCC"/>
<path d="M152.266 20.6C152.266 19.2 152.549 17.975 153.115 16.925C153.68 15.8583 154.454 15.0333 155.435 14.45C156.433 13.8667 157.539 13.575 158.754 13.575C159.951 13.575 160.991 13.8333 161.872 14.35C162.754 14.8667 163.411 15.5167 163.843 16.3V13.8H166.139V27.5H163.843V24.95C163.394 25.75 162.721 26.4167 161.822 26.95C160.941 27.4667 159.91 27.725 158.729 27.725C157.514 27.725 156.416 27.425 155.435 26.825C154.454 26.225 153.68 25.3833 153.115 24.3C152.549 23.2167 152.266 21.9833 152.266 20.6ZM163.843 20.625C163.843 19.5917 163.636 18.6917 163.22 17.925C162.804 17.1583 162.238 16.575 161.523 16.175C160.824 15.7583 160.051 15.55 159.203 15.55C158.354 15.55 157.581 15.75 156.882 16.15C156.184 16.55 155.626 17.1333 155.211 17.9C154.795 18.6667 154.587 19.5667 154.587 20.6C154.587 21.65 154.795 22.5667 155.211 23.35C155.626 24.1167 156.184 24.7083 156.882 25.125C157.581 25.525 158.354 25.725 159.203 25.725C160.051 25.725 160.824 25.525 161.523 25.125C162.238 24.7083 162.804 24.1167 163.22 23.35C163.636 22.5667 163.843 21.6583 163.843 20.625Z" fill="#CCCCCC"/>
<path d="M169.127 20.6C169.127 19.2 169.41 17.975 169.976 16.925C170.541 15.8583 171.315 15.0333 172.296 14.45C173.294 13.8667 174.409 13.575 175.64 13.575C176.704 13.575 177.694 13.825 178.609 14.325C179.524 14.8083 180.222 15.45 180.705 16.25V9H183V27.5H180.705V24.925C180.255 25.7417 179.59 26.4167 178.709 26.95C177.827 27.4667 176.796 27.725 175.615 27.725C174.4 27.725 173.294 27.425 172.296 26.825C171.315 26.225 170.541 25.3833 169.976 24.3C169.41 23.2167 169.127 21.9833 169.127 20.6ZM180.705 20.625C180.705 19.5917 180.497 18.6917 180.081 17.925C179.665 17.1583 179.099 16.575 178.384 16.175C177.686 15.7583 176.912 15.55 176.064 15.55C175.215 15.55 174.442 15.75 173.743 16.15C173.045 16.55 172.487 17.1333 172.072 17.9C171.656 18.6667 171.448 19.5667 171.448 20.6C171.448 21.65 171.656 22.5667 172.072 23.35C172.487 24.1167 173.045 24.7083 173.743 25.125C174.442 25.525 175.215 25.725 176.064 25.725C176.912 25.725 177.686 25.525 178.384 25.125C179.099 24.7083 179.665 24.1167 180.081 23.35C180.497 22.5667 180.705 21.6583 180.705 20.625Z" fill="#CCCCCC"/>
<path d="M4.58916 10.0001C4.58836 10.0001 4.58745 10.0001 4.58664 10.0001C4.3029 10.0001 4.03603 10.1107 3.83452 10.3118C3.63078 10.515 3.51855 10.7856 3.51855 11.0737V27.1712C3.51855 27.7615 4.00068 28.2429 4.59341 28.2444C7.0922 28.2504 11.2787 28.7712 14.1668 31.7935V14.947C14.1668 14.7469 14.1157 14.5589 14.0192 14.4034C11.6488 10.586 7.09362 10.006 4.58916 10.0001Z" fill="#F5F5F5"/>
<path d="M26.4816 27.1712V11.0735C26.4816 10.7855 26.3694 10.5149 26.1657 10.3116C25.9641 10.1106 25.6971 10 25.4136 10C25.4127 10 25.4118 10 25.411 10C22.9067 10.006 18.3515 10.586 15.981 14.4033C15.8845 14.5589 15.8335 14.7469 15.8335 14.947V31.7934C18.7216 28.7711 22.9081 28.2503 25.4069 28.2443C25.9995 28.2428 26.4816 27.7614 26.4816 27.1712Z" fill="#F5F5F5"/>
<path d="M28.9267 13.7124H28.1483V27.1711C28.1483 28.6783 26.9204 29.9073 25.4109 29.9111C23.2914 29.9161 19.7966 30.3306 17.3215 32.6731C21.6022 31.625 26.1147 32.3063 28.6864 32.8924C29.0075 32.9655 29.3394 32.89 29.5966 32.6849C29.853 32.4804 30.0001 32.1746 30.0001 31.8464V14.7858C30.0002 14.1939 29.5185 13.7124 28.9267 13.7124Z" fill="#F5F5F5"/>
<path d="M1.85172 27.1711V13.7124H1.07334C0.481618 13.7124 0 14.1939 0 14.7858V31.8461C0 32.1744 0.147071 32.4801 0.403436 32.6846C0.660507 32.8896 0.992023 32.9654 1.31364 32.8921C3.88537 32.3059 8.39801 31.6247 12.6784 32.6728C10.2035 30.3304 6.70871 29.916 4.58921 29.911C3.07981 29.9073 1.85172 28.6783 1.85172 27.1711Z" fill="#F5F5F5"/>
<path d="M16.5281 18.2506L15.3721 19.4523L16.4887 20.613L17.7017 19.3519C18.0354 19.005 18.4667 18.7649 18.9399 18.6626C19.4132 18.5603 19.9066 18.6004 20.3565 18.7778C20.8064 18.9553 21.1921 19.2618 21.4639 19.6579C21.7356 20.0541 21.8809 20.5215 21.881 21C21.8809 21.4785 21.7356 21.9459 21.4639 22.3421C21.1921 22.7382 20.8064 23.0447 20.3565 23.2222C19.9066 23.3996 19.4132 23.4397 18.9399 23.3374C18.4667 23.2351 18.0354 22.995 17.7017 22.6481L13.4719 18.2506C10.9575 15.6361 6.5 17.394 6.5 21C6.5 24.606 10.9575 26.3639 13.4719 23.7494L14.6279 22.5477L13.5113 21.387L12.297 22.6481C11.9632 22.9945 11.532 23.2342 11.059 23.3362C10.586 23.4383 10.0929 23.398 9.64326 23.2207C9.19364 23.0433 8.80813 22.7369 8.53645 22.3411C8.26477 21.9453 8.11939 21.4782 8.11905 21C8.11911 20.5215 8.26439 20.0541 8.53613 19.6579C8.80787 19.2618 9.1936 18.9553 9.64351 18.7778C10.0934 18.6004 10.5868 18.5603 11.0601 18.6626C11.5333 18.7649 11.9646 19.005 12.2983 19.3519L16.5281 23.7494C19.0425 26.3639 23.5 24.606 23.5 21C23.5 17.394 19.0425 15.6361 16.5281 18.2506Z" fill="#CCCCCC"/>
<rect x="51" width="1" height="43" fill="#CCCCCC"/>
</svg>
