<svg width="183" height="30" viewBox="0 0 183 30" fill="none" xmlns="http://www.w3.org/2000/svg">
<path d="M56.6249 8.59279C57.1517 7.67388 57.9322 6.91138 58.9664 6.30529C60.0201 5.67965 61.2396 5.36683 62.625 5.36683C64.0494 5.36683 65.3373 5.70897 66.4885 6.39327C67.6593 7.07756 68.5764 8.04535 69.2398 9.29663C69.9032 10.5284 70.2349 11.9654 70.2349 13.6077C70.2349 15.2304 69.9032 16.6772 69.2398 17.9481C68.5764 19.2189 67.6593 20.2062 66.4885 20.9101C65.3373 21.6139 64.0494 21.9659 62.625 21.9659C61.2591 21.9659 60.0494 21.6628 58.9957 21.0567C57.9615 20.4311 57.1713 19.6588 56.6249 18.7399V29.3269H53.9614V5.63077H56.6249V8.59279ZM67.5129 13.6077C67.5129 12.3955 67.269 11.3397 66.7812 10.4404C66.2934 9.54103 65.63 8.85673 64.7909 8.3875C63.9714 7.91827 63.0641 7.68365 62.0689 7.68365C61.0933 7.68365 60.186 7.92804 59.3469 8.41683C58.5274 8.88606 57.8639 9.58013 57.3566 10.499C56.8688 11.3984 56.6249 12.4444 56.6249 13.637C56.6249 14.8492 56.8688 15.9147 57.3566 16.8337C57.8639 17.733 58.5274 18.4271 59.3469 18.9159C60.186 19.3851 61.0933 19.6197 62.0689 19.6197C63.0641 19.6197 63.9714 19.3851 64.7909 18.9159C65.63 18.4271 66.2934 17.733 66.7812 16.8337C67.269 15.9147 67.5129 14.8394 67.5129 13.6077Z" fill="#F5F5F5"/>
<path d="M88.3753 13.0505C88.3753 13.5588 88.346 14.0965 88.2875 14.6635H75.4677C75.5652 16.2471 76.1018 17.4886 77.0775 18.388C78.0726 19.2678 79.2726 19.7077 80.6776 19.7077C81.8288 19.7077 82.7849 19.4438 83.5459 18.9159C84.3264 18.3684 84.8728 17.645 85.185 16.7457H88.0533C87.624 18.2902 86.7655 19.5513 85.4777 20.5288C84.1898 21.4869 82.5898 21.9659 80.6776 21.9659C79.1556 21.9659 77.7897 21.6237 76.5799 20.9394C75.3896 20.2551 74.453 19.2873 73.7701 18.0361C73.0871 16.7652 72.7457 15.2989 72.7457 13.637C72.7457 11.9752 73.0774 10.5186 73.7408 9.26731C74.4042 8.01602 75.3311 7.05801 76.5214 6.39327C77.7311 5.70897 79.1165 5.36683 80.6776 5.36683C82.1995 5.36683 83.5459 5.6992 84.7167 6.36394C85.8874 7.02869 86.785 7.9476 87.4094 9.12067C88.0533 10.2742 88.3753 11.5841 88.3753 13.0505ZM85.624 12.4933C85.624 11.4766 85.3996 10.6066 84.9508 9.88317C84.502 9.14022 83.8874 8.58301 83.1069 8.21154C82.3459 7.82051 81.4971 7.625 80.5605 7.625C79.2141 7.625 78.0629 8.05513 77.1067 8.91538C76.1701 9.77564 75.6335 10.9683 75.497 12.4933H85.624Z" fill="#F5F5F5"/>
<path d="M94.5545 8.24087C95.0228 7.32195 95.6862 6.60833 96.5447 6.1C97.4228 5.59167 98.4862 5.3375 99.7351 5.3375V8.09423H99.0326C96.0472 8.09423 94.5545 9.71699 94.5545 12.9625V21.7019H91.891V5.63077H94.5545V8.24087Z" fill="#F5F5F5"/>
<path d="M101.815 13.6077C101.815 11.9654 102.146 10.5284 102.81 9.29663C103.473 8.04535 104.38 7.07756 105.532 6.39327C106.702 5.70897 108 5.36683 109.424 5.36683C110.829 5.36683 112.049 5.66987 113.083 6.27596C114.117 6.88205 114.888 7.64455 115.395 8.56346V5.63077H118.088V21.7019H115.395V18.7106C114.868 19.649 114.078 20.4311 113.025 21.0567C111.99 21.6628 110.781 21.9659 109.395 21.9659C107.971 21.9659 106.683 21.6139 105.532 20.9101C104.38 20.2062 103.473 19.2189 102.81 17.9481C102.146 16.6772 101.815 15.2304 101.815 13.6077ZM115.395 13.637C115.395 12.4248 115.151 11.3691 114.664 10.4697C114.176 9.57035 113.512 8.88606 112.673 8.41683C111.854 7.92804 110.946 7.68365 109.951 7.68365C108.956 7.68365 108.049 7.91827 107.229 8.3875C106.41 8.85673 105.756 9.54103 105.268 10.4404C104.78 11.3397 104.537 12.3955 104.537 13.6077C104.537 14.8394 104.78 15.9147 105.268 16.8337C105.756 17.733 106.41 18.4271 107.229 18.9159C108.049 19.3851 108.956 19.6197 109.951 19.6197C110.946 19.6197 111.854 19.3851 112.673 18.9159C113.512 18.4271 114.176 17.733 114.664 16.8337C115.151 15.9147 115.395 14.8492 115.395 13.637Z" fill="#F5F5F5"/>
<path d="M125.253 0V21.7019H122.589V0H125.253Z" fill="#F5F5F5"/>
<path d="M144.426 13.0505C144.426 13.5588 144.397 14.0965 144.339 14.6635H131.519C131.616 16.2471 132.153 17.4886 133.129 18.388C134.124 19.2678 135.324 19.7077 136.729 19.7077C137.88 19.7077 138.836 19.4438 139.597 18.9159C140.378 18.3684 140.924 17.645 141.236 16.7457H144.104C143.675 18.2902 142.817 19.5513 141.529 20.5288C140.241 21.4869 138.641 21.9659 136.729 21.9659C135.207 21.9659 133.841 21.6237 132.631 20.9394C131.441 20.2551 130.504 19.2873 129.821 18.0361C129.138 16.7652 128.797 15.2989 128.797 13.637C128.797 11.9752 129.129 10.5186 129.792 9.26731C130.455 8.01602 131.382 7.05801 132.572 6.39327C133.782 5.70897 135.168 5.36683 136.729 5.36683C138.251 5.36683 139.597 5.6992 140.768 6.36394C141.939 7.02869 142.836 7.9476 143.461 9.12067C144.104 10.2742 144.426 11.5841 144.426 13.0505ZM141.675 12.4933C141.675 11.4766 141.451 10.6066 141.002 9.88317C140.553 9.14022 139.939 8.58301 139.158 8.21154C138.397 7.82051 137.548 7.625 136.612 7.625C135.265 7.625 134.114 8.05513 133.158 8.91538C132.221 9.77564 131.685 10.9683 131.548 12.4933H141.675Z" fill="#F5F5F5"/>
<path d="M146.947 13.6077C146.947 11.9654 147.279 10.5284 147.942 9.29663C148.606 8.04535 149.513 7.07756 150.664 6.39327C151.835 5.70897 153.132 5.36683 154.557 5.36683C155.962 5.36683 157.181 5.66987 158.216 6.27596C159.25 6.88205 160.02 7.64455 160.528 8.56346V5.63077H163.22V21.7019H160.528V18.7106C160.001 19.649 159.211 20.4311 158.157 21.0567C157.123 21.6628 155.913 21.9659 154.528 21.9659C153.103 21.9659 151.815 21.6139 150.664 20.9101C149.513 20.2062 148.606 19.2189 147.942 17.9481C147.279 16.6772 146.947 15.2304 146.947 13.6077ZM160.528 13.637C160.528 12.4248 160.284 11.3691 159.796 10.4697C159.308 9.57035 158.645 8.88606 157.806 8.41683C156.986 7.92804 156.079 7.68365 155.084 7.68365C154.089 7.68365 153.181 7.91827 152.362 8.3875C151.542 8.85673 150.889 9.54103 150.401 10.4404C149.913 11.3397 149.669 12.3955 149.669 13.6077C149.669 14.8394 149.913 15.9147 150.401 16.8337C150.889 17.733 151.542 18.4271 152.362 18.9159C153.181 19.3851 154.089 19.6197 155.084 19.6197C156.079 19.6197 156.986 19.3851 157.806 18.9159C158.645 18.4271 159.308 17.733 159.796 16.8337C160.284 15.9147 160.528 14.8492 160.528 13.637Z" fill="#F5F5F5"/>
<path d="M166.726 13.6077C166.726 11.9654 167.058 10.5284 167.722 9.29663C168.385 8.04535 169.292 7.07756 170.444 6.39327C171.614 5.70897 172.922 5.36683 174.366 5.36683C175.614 5.36683 176.775 5.6601 177.849 6.24663C178.922 6.81362 179.741 7.56635 180.307 8.50481V0H183V21.7019H180.307V18.6813C179.78 19.6393 179 20.4311 177.966 21.0567C176.931 21.6628 175.722 21.9659 174.336 21.9659C172.912 21.9659 171.614 21.6139 170.444 20.9101C169.292 20.2062 168.385 19.2189 167.722 17.9481C167.058 16.6772 166.726 15.2304 166.726 13.6077ZM180.307 13.637C180.307 12.4248 180.063 11.3691 179.575 10.4697C179.088 9.57035 178.424 8.88606 177.585 8.41683C176.766 7.92804 175.858 7.68365 174.863 7.68365C173.868 7.68365 172.961 7.91827 172.141 8.3875C171.322 8.85673 170.668 9.54103 170.18 10.4404C169.692 11.3397 169.448 12.3955 169.448 13.6077C169.448 14.8394 169.692 15.9147 170.18 16.8337C170.668 17.733 171.322 18.4271 172.141 18.9159C172.961 19.3851 173.868 19.6197 174.863 19.6197C175.858 19.6197 176.766 19.3851 177.585 18.9159C178.424 18.4271 179.088 17.733 179.575 16.8337C180.063 15.9147 180.307 14.8492 180.307 13.637Z" fill="#F5F5F5"/>
<path d="M5.38335 1.17334C5.3824 1.17334 5.38133 1.17334 5.38039 1.17334C5.04754 1.17334 4.73448 1.30309 4.49809 1.53889C4.25909 1.7773 4.12744 2.09474 4.12744 2.43268V21.3163C4.12744 22.0088 4.69301 22.5735 5.38833 22.5753C8.31961 22.5823 13.2307 23.1933 16.6186 26.7387V6.97642C16.6186 6.74168 16.5587 6.52117 16.4455 6.33869C13.6648 1.8606 8.32126 1.18021 5.38335 1.17334Z" fill="#F5F5F5"/>
<path d="M31.065 21.3162V2.43244C31.065 2.0945 30.9334 1.77705 30.6944 1.53865C30.458 1.30285 30.1447 1.1731 29.8122 1.1731C29.8111 1.1731 29.8101 1.1731 29.8091 1.1731C26.8713 1.18009 21.5278 1.86047 18.747 6.33856C18.6338 6.52104 18.574 6.74156 18.574 6.97629V26.7384C21.9619 23.193 26.873 22.5821 29.8043 22.5751C30.4995 22.5733 31.065 22.0086 31.065 21.3162Z" fill="#F5F5F5"/>
<path d="M33.9334 5.52808H33.0203V21.3162C33.0203 23.0842 31.5797 24.5259 29.809 24.5303C27.3226 24.5363 23.223 25.0224 20.3196 27.7704C25.3411 26.5409 30.6346 27.3402 33.6515 28.0277C34.0282 28.1134 34.4174 28.0248 34.7192 27.7843C35.0199 27.5443 35.1925 27.1856 35.1925 26.8007V6.78718C35.1926 6.09293 34.6276 5.52808 33.9334 5.52808Z" fill="#F5F5F5"/>
<path d="M2.17221 21.3162V5.52808H1.25911C0.564975 5.52808 0 6.09293 0 6.78718V26.8003C0 27.1854 0.172526 27.544 0.473261 27.7839C0.774826 28.0243 1.16372 28.1133 1.541 28.0273C4.55783 27.3397 9.85151 26.5406 14.8728 27.77C11.9695 25.0222 7.86983 24.5361 5.38349 24.5302C3.61285 24.5259 2.17221 23.0842 2.17221 21.3162Z" fill="#F5F5F5"/>
<path d="M19.3887 10.8516L18.0327 12.2613L19.3425 13.6229L20.7654 12.1434C21.1569 11.7366 21.6628 11.4549 22.218 11.3349C22.7731 11.2148 23.352 11.2619 23.8797 11.4701C24.4075 11.6782 24.86 12.0378 25.1788 12.5025C25.4975 12.9672 25.668 13.5155 25.668 14.0768C25.668 14.6381 25.4975 15.1865 25.1788 15.6512C24.86 16.1158 24.4075 16.4755 23.8797 16.6836C23.352 16.8917 22.7731 16.9388 22.218 16.8188C21.6628 16.6987 21.1569 16.4171 20.7654 16.0102L15.8036 10.8516C12.854 7.78455 7.625 9.84676 7.625 14.0768C7.625 18.3069 12.854 20.3691 15.8036 17.3021L17.1596 15.8924L15.8498 14.5308L14.4253 16.0102C14.0338 16.4166 13.5279 16.6977 12.9731 16.8174C12.4182 16.9371 11.8397 16.8899 11.3123 16.6818C10.7848 16.4738 10.3326 16.1144 10.0139 15.6501C9.69522 15.1858 9.52467 14.6378 9.52427 14.0768C9.52434 13.5155 9.69476 12.9672 10.0135 12.5025C10.3323 12.0378 10.7848 11.6782 11.3126 11.4701C11.8404 11.2619 12.4192 11.2148 12.9743 11.3349C13.5295 11.4549 14.0354 11.7366 14.4269 12.1434L19.3887 17.3021C22.3383 20.3691 27.5673 18.3069 27.5673 14.0768C27.5673 9.84676 22.3383 7.78455 19.3887 10.8516Z" fill="#CCCCCC"/>
</svg>
